<?xml version="1.0" encoding="utf-8"?>
<!-- Generator: Adobe Illustrator 17.1.0, SVG Export Plug-In . SVG Version: 6.00 Build 0)  -->
<!DOCTYPE svg PUBLIC "-//W3C//DTD SVG 1.1//EN" "http://www.w3.org/Graphics/SVG/1.1/DTD/svg11.dtd">
<svg version="1.1" id="Layer_1" xmlns="http://www.w3.org/2000/svg" xmlns:xlink="http://www.w3.org/1999/xlink" x="0px" y="0px"
	 viewBox="0 0 207.3 208.7" enable-background="new 0 0 207.3 208.7" xml:space="preserve">
<g>
	<path fill="#ED1C24" d="M30.4,144.1l-2.5,1.6c-0.3,0.2-0.4,0.6-0.2,0.9l1.5,2.3c0.2,0.3,0.6,0.4,0.9,0.2l2.7-1.8
		c1.6-1.1,2.7-0.7,3.4,0.4c0.7,1.1,0.6,2.2-1,3.3l-12.2,8c-1.6,1.1-2.7,0.8-3.4-0.4c-0.7-1.1-0.6-2.2,1-3.3l1.9-1.2
		c0.3-0.2,0.4-0.6,0.2-0.9l-1.5-2.3c-0.2-0.3-0.6-0.4-0.9-0.2l-1.7,1.1c-3.6,2.4-4.5,5.5-2.2,9c2.3,3.5,5.5,3.9,9.1,1.6l11.7-7.7
		c3.6-2.4,4.5-5.5,2.2-9C37.3,142.2,34,141.8,30.4,144.1z"/>
	<path fill="#ED1C24" d="M30.8,127.4c-1.3-4-4.3-5.4-8.4-4L9,127.8c-4.1,1.3-5.7,4.3-4.4,8.2s4.3,5.4,8.4,4l13.3-4.4
		C30.4,134.3,32.1,131.4,30.8,127.4z M11.4,136.1c-1.8,0.6-2.8,0-3.2-1.3c-0.4-1.3,0-2.3,1.8-2.9l13.9-4.5c1.8-0.6,2.8,0,3.2,1.3
		c0.4,1.3,0,2.3-1.8,2.9L11.4,136.1z"/>
	<path fill="#ED1C24" d="M25.8,102.1l-2.4,0.1c-0.4,0-0.7,0.4-0.7,0.7l0.3,5.6c0,0.4-0.3,0.7-0.7,0.7l-21.7,1.3
		c-0.4,0-0.7,0.4-0.7,0.7l0.2,2.8c0,0.4,0.4,0.7,0.7,0.7l25.5-1.5c0.4,0,0.7-0.4,0.7-0.7l-0.6-9.8C26.5,102.4,26.2,102.1,25.8,102.1
		z"/>
	<path fill="#ED1C24" d="M28.5,83.5L26,83c-0.4-0.1-0.7,0.2-0.8,0.5l-1,5.6c-0.1,0.4-0.4,0.6-0.8,0.5L2,85.6
		c-0.4-0.1-0.7,0.2-0.8,0.5l-0.5,2.9c-0.1,0.4,0.2,0.7,0.5,0.8l25.3,4.7c0.4,0.1,0.7-0.2,0.8-0.5l1.8-9.8
		C29.1,83.9,28.9,83.6,28.5,83.5z"/>
	<path fill="#ED1C24" d="M35.6,65.8l-2.1-1c-0.4-0.2-0.9,0-1,0.4l-2.4,5.2c-0.2,0.4-0.6,0.6-1,0.4l-5.8-2.7c-0.4-0.2-0.6-0.6-0.4-1
		l1.8-3.9c0.2-0.4,0-0.9-0.4-1l-2.1-1c-0.4-0.2-0.9,0-1,0.4l-1.8,3.9c-0.2,0.4-0.6,0.6-1,0.4L13,63.4c-0.4-0.2-0.6-0.6-0.4-1
		l2.4-5.2c0.2-0.4,0-0.9-0.4-1l-2.1-1c-0.4-0.2-0.9,0-1,0.4l-4.2,9.1c-0.2,0.4,0,0.9,0.4,1l23.1,10.7c0.4,0.2,0.9,0,1-0.4l4.2-9.1
		C36.2,66.4,36,66,35.6,65.8z"/>
	<path fill="#ED1C24" d="M24.7,46.4l10.8,9c3.3,2.8,6.6,2.7,9.3-0.5c2.7-3.2,2.1-6.4-1.2-9.2l-2.2-1.8c-0.3-0.3-0.8-0.2-1.1,0.1
		l-1.6,1.9c-0.3,0.3-0.2,0.8,0.1,1.1l2.4,2c1.5,1.2,1.5,2.3,0.6,3.4c-0.9,1-1.9,1.2-3.4,0L27.2,43c-1.5-1.2-1.5-2.4-0.6-3.4
		c0.9-1,2-1.2,3.5,0l1.6,1.4c0.3,0.3,0.8,0.2,1.1-0.1l1.6-1.9c0.3-0.3,0.2-0.8-0.1-1.1l-1.4-1.2c-3.3-2.8-6.6-2.7-9.3,0.5
		C20.9,40.4,21.4,43.6,24.7,46.4z"/>
	<path fill="#ED1C24" d="M44.2,24.4l12.5,17.5c0.3,0.4,0.8,0.5,1.1,0.2l2.1-1.5c0.4-0.3,0.5-0.8,0.2-1.1L47.7,21.9
		c-0.3-0.4-0.2-0.9,0.2-1.1l2.3-1.6c0.4-0.3,0.5-0.8,0.2-1.2l-1.3-1.8c-0.3-0.4-0.8-0.5-1.1-0.2l-9.3,6.6c-0.4,0.3-0.5,0.8-0.2,1.1
		l1.3,1.8c0.3,0.4,0.8,0.5,1.1,0.2l2.3-1.6C43.5,23.9,44,24,44.2,24.4z"/>
	<path fill="#ED1C24" d="M74.8,31.9L64.5,8.3C64.4,8,64.1,7.8,63.8,8L61,9.2c-0.3,0.1-0.4,0.5-0.3,0.8l10.2,23.7
		c0.1,0.3,0.5,0.4,0.8,0.3l2.8-1.2C74.8,32.6,74.9,32.3,74.8,31.9z"/>
	<path fill="#ED1C24" d="M92.5,27.3L91.6,1.1c0-0.3-0.3-0.6-0.6-0.5l-2.8,0.5c-0.3,0-0.4,0.3-0.4,0.5l0.7,18.2c0,0.6-0.8,0.8-1,0.2
		L81.5,2.8c-0.1-0.2-0.3-0.4-0.6-0.3l-3.2,0.6c-0.3,0.1-0.5,0.4-0.4,0.7l8.7,24.7c0.1,0.2,0.3,0.4,0.6,0.3l5.3-1
		C92.3,27.8,92.5,27.6,92.5,27.3z"/>
	<path fill="#ED1C24" d="M115.1,23.9l-5.8-0.5c-0.4,0-0.7-0.4-0.7-0.8l0.5-6.3c0-0.4,0.4-0.7,0.8-0.7l4.3,0.3c0.4,0,0.8-0.3,0.8-0.7
		l0.2-2.3c0-0.4-0.3-0.8-0.7-0.8l-4.3-0.3c-0.4,0-0.7-0.4-0.7-0.8l0.5-6c0-0.4,0.4-0.7,0.8-0.7l5.8,0.5c0.4,0,0.8-0.3,0.8-0.7
		l0.2-2.3c0-0.4-0.3-0.8-0.7-0.8l-10-0.8c-0.4,0-0.8,0.3-0.8,0.7l-2,25.4c0,0.4,0.3,0.8,0.7,0.8l10,0.8c0.4,0,0.8-0.3,0.8-0.7
		l0.2-2.3C115.8,24.3,115.5,23.9,115.1,23.9z"/>
	<path fill="#ED1C24" d="M140,36.6c3.7,2,6.7,0.8,8.8-3l1.3-2.5c0.2-0.4,0.1-0.8-0.3-1l-2.2-1.2c-0.4-0.2-0.8-0.1-1,0.3l-1.5,2.7
		c-0.9,1.7-2,1.9-3.2,1.3c-1.2-0.6-1.6-1.7-0.7-3.4l6.9-12.8c0.9-1.7,2-1.9,3.2-1.3c1.2,0.6,1.6,1.7,0.7,3.4l-1,1.9
		c-0.2,0.4-0.1,0.8,0.3,1l2.2,1.2c0.4,0.2,0.8,0.1,1-0.3l0.9-1.6c2.1-3.8,1.3-7-2.3-9c-3.7-2-6.7-0.8-8.8,3l-6.7,12.3
		C135.6,31.4,136.3,34.6,140,36.6z"/>
	<path fill="#ED1C24" d="M154.7,45.6l2.9-2.2c0.3-0.2,0.7-0.2,1,0.1l2.8,2.7c0.3,0.3,0.3,0.7,0.1,1l-2.1,2.9c-0.2,0.3-0.2,0.7,0.1,1
		l1.9,1.9c0.3,0.3,0.9,0.3,1.2-0.1l14.7-21.1c0.2-0.3,0.2-0.7-0.1-1l-3.5-3.4c-0.3-0.3-0.7-0.3-1-0.1l-20.6,15.5
		c-0.4,0.3-0.4,0.8-0.1,1.2l1.7,1.6C153.9,45.8,154.4,45.9,154.7,45.6z M168.9,36.6l-4.5,6.3c-0.3,0.4-0.8,0.4-1.2,0.1l-1.6-1.6
		c-0.3-0.3-0.3-0.9,0.1-1.2l6.1-4.7C168.5,35,169.4,35.8,168.9,36.6z"/>
	<path fill="#ED1C24" d="M168.8,62.2l11.2-6.1c0.5-0.3,1,0.4,0.5,0.8L170.2,65c-0.2,0.1-0.2,0.4-0.1,0.6l1.5,2.8
		c0.1,0.2,0.4,0.3,0.6,0.2l12-4.4c0.6-0.2,0.9,0.6,0.4,0.9l-11,6c-0.2,0.1-0.3,0.4-0.2,0.7l1.5,2.7c0.1,0.2,0.4,0.3,0.7,0.2
		l22.8-12.5c0.2-0.1,0.3-0.4,0.2-0.7l-2.4-4.4c-0.1-0.2-0.4-0.3-0.6-0.2l-14.9,5.5c-0.5,0.2-0.9-0.5-0.5-0.8l12.6-9.8
		c0.2-0.1,0.2-0.4,0.1-0.6l-2.4-4.4c-0.1-0.2-0.4-0.3-0.7-0.2L167,59c-0.2,0.1-0.3,0.4-0.2,0.7l1.3,2.4
		C168.2,62.3,168.5,62.3,168.8,62.2z"/>
	<path fill="#ED1C24" d="M179.2,86.8l8.4-1.7c0.4-0.1,0.8,0.2,0.9,0.6l0.2,1.2c0.9,4.2,3.6,5.7,7.8,4.9l3.4-0.7
		c4.2-0.9,6.1-3.4,5.3-7.5l-1.1-5.4c-0.1-0.4-0.5-0.7-0.9-0.6l-24.9,5.1c-0.4,0.1-0.7,0.5-0.6,0.9l0.5,2.6
		C178.3,86.6,178.7,86.9,179.2,86.8z M200.3,82.5c0.4-0.1,0.8,0.2,0.9,0.6l0.2,1.2c0.3,1.3-0.2,2.2-2.1,2.5l-4,0.8
		c-1.9,0.4-2.6-0.2-2.9-1.5l-0.2-1.2c-0.1-0.4,0.2-0.8,0.6-0.9L200.3,82.5z"/>
	<path fill="#ED1C24" d="M201,103.5l-14-0.9c-4.3-0.3-6.9,1.8-7.2,6c-0.3,4.2,2.1,6.6,6.4,6.9l14,0.9c4.3,0.3,6.9-1.8,7.2-6
		C207.6,106.2,205.3,103.8,201,103.5z M200.7,112.1l-14.5-0.9c-1.9-0.1-2.6-1-2.5-2.4c0.1-1.3,0.9-2.1,2.8-2l14.5,0.9
		c1.9,0.1,2.6,1,2.5,2.4C203.4,111.5,202.6,112.3,200.7,112.1z"/>
	<path fill="#ED1C24" d="M175.7,128.7c-1.4,3.9,0.3,6.8,4.4,8.2l18.8,6.5c0.3,0.1,0.7-0.1,0.8-0.4l0.9-2.6c0.1-0.3-0.1-0.7-0.4-0.8
		l-19.1-6.6c-1.8-0.6-2.2-1.7-1.8-2.9c0.4-1.3,1.4-1.9,3.2-1.2l19.1,6.6c0.3,0.1,0.7-0.1,0.8-0.4l1-2.8c0.1-0.3-0.1-0.7-0.4-0.8
		l-18.8-6.5C180.1,123.6,177.1,124.8,175.7,128.7z"/>
	<path fill="#ED1C24" d="M187,157.5l-18.1-12.2c-0.3-0.2-0.7-0.1-0.9,0.2l-1.6,2.4c-0.2,0.3-0.1,0.7,0.2,0.9l18.1,12.2
		c0.3,0.2,0.4,0.6,0.2,0.9l-1.7,2.6c-0.2,0.3-0.1,0.7,0.2,0.9l2.1,1.4c0.3,0.2,0.7,0.1,0.9-0.2l6.6-9.8c0.2-0.3,0.1-0.7-0.2-0.9
		l-2.1-1.4c-0.3-0.2-0.7-0.1-0.9,0.2l-1.7,2.6C187.7,157.6,187.3,157.7,187,157.5z"/>
	<path fill="#ED1C24" d="M61.7,128.8l1.6,2.2c0.2,0.3,0.1,0.7-0.2,0.9l-9.8,6.9c-0.3,0.2-0.4,0.6-0.2,0.9l0.7,1
		c0.2,0.3,0.6,0.4,0.9,0.2l11.6-8.2c0.3-0.2,0.4-0.6,0.2-0.9l-3-4.2c-0.2-0.3-0.6-0.4-0.9-0.2l-0.8,0.5
		C61.6,128.1,61.5,128.5,61.7,128.8z"/>
	<path fill="#ED1C24" d="M58.2,116.7l-0.7,0.3c-0.4,0.1-0.6,0.5-0.4,0.9l1,2.6c0.1,0.4-0.1,0.8-0.4,0.9l-2.9,1.1
		c-0.4,0.1-0.8-0.1-0.9-0.4l-0.7-1.8c-0.1-0.4-0.5-0.6-0.9-0.4l-0.7,0.3c-0.4,0.1-0.6,0.5-0.4,0.9l0.7,1.8c0.1,0.4-0.1,0.8-0.4,0.9
		l-2.7,1c-0.4,0.1-0.8-0.1-0.9-0.4l-1-2.6c-0.1-0.4-0.5-0.6-0.9-0.4l-0.7,0.3c-0.4,0.1-0.6,0.5-0.4,0.9l1.8,4.9
		c0.1,0.4,0.5,0.6,0.9,0.4l13.2-4.8c0.4-0.1,0.6-0.5,0.4-0.9l-1.8-4.9C59,116.8,58.6,116.6,58.2,116.7z"/>
	<path fill="#ED1C24" d="M57.3,109.2l-2.3-0.2c-0.2,0-0.3-0.1-0.3-0.3l-0.2-2.4c0-0.2,0.1-0.3,0.2-0.3l2.2-0.5
		c0.2,0,0.3-0.2,0.2-0.3l-0.1-1.8c0-0.2-0.2-0.3-0.4-0.3l-14.6,3.5c-0.2,0-0.3,0.2-0.2,0.3l0.2,3c0,0.2,0.1,0.3,0.3,0.3l14.9,1.3
		c0.2,0,0.4-0.1,0.3-0.3l-0.1-1.6C57.6,109.4,57.4,109.3,57.3,109.2z M46.8,107.8l5.3-1.2c0.2,0,0.4,0.1,0.4,0.3l0.1,1.6
		c0,0.2-0.1,0.4-0.3,0.3l-5.4-0.4C46.5,108.4,46.5,107.9,46.8,107.8z"/>
	<path fill="#ED1C24" d="M54.3,92l2.4,0.5c0.9,0.2,1.3,0.2,1.6,0.2c0.2,0,0.4-0.1,0.4-0.3l0.3-1.5c0.1-0.3-0.2-0.5-0.4-0.5
		c-0.4,0-0.8-0.1-1.3-0.2l-2.3-0.5c-1.3-0.3-2.4-0.2-3.1,0.4c-0.2,0.2-0.5,0.1-0.7-0.2c-0.4-0.8-1.3-1.3-2.5-1.6l-1.2-0.3
		c-2.3-0.5-3.7,0.3-4.2,2.8L42.5,94c0,0.2,0.1,0.5,0.3,0.5l14.3,3.1c0.2,0,0.5-0.1,0.5-0.3l0.3-1.5c0-0.2-0.1-0.5-0.3-0.5L51.9,94
		l0.2-0.8C52.3,92.1,52.9,91.7,54.3,92z M49.9,92.6l-0.1,0.5c0,0.2-0.3,0.4-0.5,0.3l-3.8-0.8c-0.2,0-0.4-0.3-0.3-0.5l0.2-0.7
		c0.2-0.8,0.7-1.1,1.8-0.9l1.5,0.3C49.9,91.1,50.1,91.7,49.9,92.6z"/>
	<path fill="#ED1C24" d="M64.3,78l-12.7-6.9c-0.2-0.1-0.5,0-0.7,0.2l-0.6,1c-0.1,0.2,0,0.5,0.2,0.7l4.4,2.4c0.5,0.3,0.2,1.1-0.4,0.9
		l-5.3-1.3c-0.2-0.1-0.4,0-0.6,0.2l-1,1.9c-0.1,0.2,0,0.5,0.2,0.7l12.7,6.9c0.2,0.1,0.5,0,0.7-0.2l0.6-1c0.1-0.2,0-0.5-0.2-0.7
		l-6.1-3.3c-0.5-0.3-0.2-1.1,0.4-0.9l7.3,1.7c0.2,0.1,0.4,0,0.6-0.2l0.8-1.4C64.7,78.5,64.6,78.2,64.3,78z"/>
	<path fill="#ED1C24" d="M65.7,64.5c-0.9-0.9-2.3-0.8-3.2,0.1c-0.9,0.9-0.8,2.3,0.1,3.2c0.9,0.9,2.3,0.8,3.2-0.1
		C66.6,66.8,66.6,65.3,65.7,64.5z"/>
	<path fill="#ED1C24" d="M78.3,65.2c2-1.3,2.3-3.2,0.9-5.2l-0.8-1.3c-0.2-0.2-0.5-0.3-0.7-0.2l-1,0.7c-0.2,0.2-0.3,0.5-0.2,0.7
		l0.9,1.4c0.6,0.9,0.4,1.5-0.2,1.9c-0.6,0.4-1.3,0.4-1.9-0.6l-4.6-7c-0.6-0.9-0.4-1.5,0.2-2c0.6-0.4,1.3-0.3,1.9,0.6l0.6,0.9
		c0.2,0.2,0.5,0.3,0.7,0.2l1-0.7c0.2-0.2,0.3-0.5,0.2-0.7l-0.5-0.8c-1.4-2.1-3.2-2.6-5.2-1.3c-2,1.3-2.3,3.2-0.9,5.2l4.4,6.7
		C74.5,66,76.3,66.6,78.3,65.2z"/>
	<path fill="#ED1C24" d="M92.2,54.5c-0.4-1.3-1-2.3-2-2.6c-0.2-0.1-0.3-0.3-0.2-0.5c0.6-0.8,0.6-1.8,0.2-3.1l-0.4-1.2
		c-0.7-2.3-2.1-3.1-4.5-2.3l-3.2,1c-0.2,0.1-0.3,0.2-0.2,0.4l4.4,14.2c0.1,0.2,0.2,0.3,0.4,0.2l1.7-0.5c0.2-0.1,0.3-0.2,0.2-0.4
		L86.9,54l0.8-0.2c1.1-0.3,1.7,0,2.1,1.4l0.7,2.3c0.3,1,0.5,1.3,0.6,1.6c0.1,0.1,0.2,0.2,0.4,0.1l1.7-0.5c0.2-0.1,0.3-0.3,0.2-0.5
		c-0.2-0.4-0.4-0.8-0.6-1.4L92.2,54.5z M87.2,51.6l-0.6,0.2c-0.2,0.1-0.3,0-0.4-0.2L85,47.6c-0.1-0.2,0-0.3,0.2-0.4L86,47
		c0.8-0.3,1.3,0.1,1.6,1.1l0.4,1.5C88.5,50.8,88.1,51.3,87.2,51.6z"/>
	<path fill="#ED1C24" d="M105.9,57.2l0-1.6c0-0.2-0.1-0.3-0.3-0.3l-3.6,0.1c-0.2,0-0.3-0.1-0.3-0.3l-0.1-3.9c0-0.2,0.1-0.3,0.3-0.3
		l2.8-0.1c0.2,0,0.3-0.1,0.3-0.3l0-1.6c0-0.2-0.1-0.3-0.3-0.3l-2.8,0.1c-0.2,0-0.3-0.1-0.3-0.3l-0.1-3.7c0-0.2,0.1-0.3,0.3-0.3
		l3.6-0.1c0.2,0,0.3-0.1,0.3-0.3l0-1.6c0-0.2-0.1-0.3-0.3-0.3l-6,0.1c-0.2,0-0.3,0.1-0.3,0.3l0.3,14.9c0,0.2,0.1,0.3,0.3,0.3l6-0.1
		C105.7,57.5,105.9,57.4,105.9,57.2z"/>
	<path fill="#ED1C24" d="M111.4,58.2l1.5,0.4c0.2,0,0.3,0,0.4-0.2l0.9-2.1c0.1-0.2,0.2-0.2,0.4-0.2l2.3,0.6c0.2,0,0.3,0.2,0.3,0.4
		l-0.2,2.2c0,0.2,0.1,0.3,0.3,0.4l1.7,0.4c0.2,0,0.4-0.1,0.4-0.3l1.2-14.9c0-0.2-0.1-0.3-0.3-0.4l-2.9-0.7c-0.2,0-0.3,0-0.4,0.2
		l-5.8,13.8C111.1,57.9,111.2,58.1,111.4,58.2z M116.9,54.5l-1.5-0.4c-0.2,0-0.3-0.3-0.2-0.5l2-4.9c0.1-0.4,0.7-0.2,0.6,0.2
		l-0.5,5.3C117.3,54.4,117.1,54.5,116.9,54.5z"/>
	<path fill="#ED1C24" d="M127.4,63.8l6.2-11c0.1-0.2,0.3-0.2,0.4-0.1l1.7,0.9c0.2,0.1,0.3,0,0.4-0.1l0.8-1.4c0.1-0.2,0-0.3-0.1-0.4
		l-6-3.4c-0.2-0.1-0.3,0-0.4,0.1l-0.8,1.4c-0.1,0.2,0,0.3,0.1,0.4l1.7,0.9c0.2,0.1,0.2,0.3,0.1,0.4l-6.2,11c-0.1,0.2,0,0.3,0.1,0.4
		l1.6,0.9C127.1,64,127.3,64,127.4,63.8z"/>
	<path fill="#ED1C24" d="M142.8,67.7l1-1c0.1-0.1,0.1-0.4,0-0.5l-1.9-1.8c-0.1-0.1-0.1-0.4,0-0.5l2.5-2.5c0.1-0.1,0.4-0.1,0.5,0
		l2.5,2.4c0.1,0.1,0.4,0.1,0.5,0l1-1c0.1-0.1,0.1-0.4,0-0.5l-4.2-4.1c-0.1-0.1-0.4-0.1-0.5,0l-10.4,10.5c-0.1,0.1-0.1,0.4,0,0.5
		l4.2,4.1c0.1,0.1,0.4,0.1,0.5,0l1-1c0.1-0.1,0.1-0.4,0-0.5l-2.5-2.4c-0.1-0.1-0.1-0.4,0-0.5l2.7-2.7c0.1-0.1,0.4-0.1,0.5,0l1.9,1.8
		C142.4,67.8,142.6,67.8,142.8,67.7z"/>
	<path fill="#ED1C24" d="M151.4,77.7c1.1-0.6,1.4-2,0.8-3.1c-0.6-1.1-2-1.4-3.1-0.8c-1.1,0.6-1.4,2-0.8,3.1
		C148.9,78,150.3,78.3,151.4,77.7z"/>
	<path fill="#ED1C24" d="M159.2,87.2l-1.4,0.4c-0.1,0-0.2,0.2-0.1,0.3l0.6,1.8c0,0.1,0.2,0.2,0.3,0.1l1.2-0.4
		c2.4-0.8,3.3-2.4,2.6-4.6c-0.7-2.3-2.5-3-4.8-2.2l-7.6,2.5c-2.4,0.8-3.3,2.4-2.6,4.6c0.7,2.3,2.5,3,4.8,2.2l4.5-1.4
		c0.1,0,0.2-0.2,0.1-0.3l-0.9-2.8c0-0.1-0.2-0.2-0.3-0.1l-1.7,0.5c-0.1,0-0.2,0.2-0.1,0.3l0.2,0.6c0,0.1,0,0.2-0.1,0.3l-2.5,0.8
		c-1,0.3-1.6,0-1.8-0.7c-0.2-0.7,0-1.3,1-1.7l7.9-2.6c1-0.3,1.6,0,1.8,0.7C160.5,86.3,160.2,86.9,159.2,87.2z"/>
	<path fill="#ED1C24" d="M149.6,99.4l0,1.3c0,0.3,0.3,0.6,0.6,0.6l5.7-0.2l0,0.8c0,1.1-0.5,1.6-1.9,1.6l-2.4,0.1
		c-0.8,0-1.2,0.1-1.5,0.1c-0.3,0.1-0.4,0.3-0.4,0.6l0,1.3c0,0.4,0.3,0.6,0.7,0.5c0.4-0.1,0.7-0.1,1.2-0.1l2.4-0.1
		c1.3,0,2.3-0.3,2.8-1c0.2-0.3,0.6-0.3,0.8,0c0.6,0.6,1.5,0.9,2.7,0.9l1.2,0c2.4-0.1,3.5-1.2,3.4-3.7l-0.1-3.1
		c0-0.3-0.3-0.6-0.6-0.6l-14.3,0.4C149.8,98.8,149.6,99.1,149.6,99.4z M161.4,103.3l-1.5,0c-1.2,0-1.7-0.5-1.7-1.4l0-0.4
		c0-0.3,0.2-0.6,0.6-0.6l3.6-0.1c0.3,0,0.6,0.2,0.6,0.6l0,0.6C163,102.8,162.5,103.2,161.4,103.3z"/>
	<path fill="#ED1C24" d="M160.5,114.5l-7.8-1.9c-2.4-0.6-4.1,0.3-4.7,2.7c-0.6,2.3,0.5,3.9,2.9,4.5l7.8,1.9c2.4,0.6,4.1-0.3,4.7-2.7
		C164,116.7,162.9,115.1,160.5,114.5z M161.3,118.5c-0.2,0.7-0.7,1.1-1.8,0.9l-8.1-2c-1.1-0.3-1.4-0.8-1.2-1.6
		c0.2-0.7,0.7-1.1,1.8-0.9l8.1,2C161.2,117.1,161.5,117.7,161.3,118.5z"/>
	<path fill="#ED1C24" d="M143,128.1l4.7,3.7c0.2,0.2,0,0.5-0.2,0.4l-5.3-2.7c-0.1-0.1-0.2,0-0.3,0.1l-1.5,2.4c-0.1,0.1,0,0.2,0,0.3
		l11.7,9.5c0.1,0.1,0.3,0.1,0.3-0.1l0.9-1.4c0.1-0.1,0-0.2,0-0.3l-7.7-6.2c-0.2-0.2,0-0.5,0.2-0.4l8.8,4.5c0.1,0.1,0.2,0,0.3-0.1
		l1-1.6c0.1-0.1,0-0.2-0.1-0.3l-7.7-6.1c-0.2-0.2,0-0.5,0.2-0.4l8.8,4.4c0.1,0.1,0.2,0,0.3-0.1l1-1.6c0.1-0.1,0-0.3-0.1-0.3
		l-13.5-6.7c-0.1-0.1-0.2,0-0.3,0.1l-1.6,2.5C142.9,127.9,142.9,128.1,143,128.1z"/>
	<path fill="#ED1C24" d="M77.1,96.1l-2.6,16.3c0,0.2,0.2,0.5,0.4,0.5h1.6c0.2,0,0.4-0.1,0.4-0.3l0.4-2.4c0-0.2,0.2-0.3,0.4-0.3h2.6
		c0.2,0,0.4,0.1,0.4,0.3l0.4,2.4c0,0.2,0.2,0.3,0.4,0.3h1.9c0.3,0,0.4-0.2,0.4-0.5l-2.6-16.3c0-0.2-0.2-0.3-0.4-0.3h-3.2
		C77.3,95.8,77.2,95.9,77.1,96.1z M77.8,107l0.8-5.5c0.1-0.5,0.7-0.5,0.8,0l0.8,5.5c0,0.2-0.2,0.5-0.4,0.5h-1.6
		C78,107.5,77.8,107.2,77.8,107z"/>
	<path fill="#ED1C24" d="M101.7,72L99,88.3c0,0.2,0.2,0.5,0.4,0.5h1.6c0.2,0,0.4-0.1,0.4-0.3l0.4-2.4c0-0.2,0.2-0.3,0.4-0.3h2.6
		c0.2,0,0.4,0.1,0.4,0.3l0.4,2.4c0,0.2,0.2,0.3,0.4,0.3h1.9c0.3,0,0.4-0.2,0.4-0.5L105.7,72c0-0.2-0.2-0.3-0.4-0.3h-3.2
		C101.9,71.6,101.7,71.8,101.7,72z M102.3,82.8l0.8-5.5c0.1-0.5,0.7-0.5,0.8,0l0.8,5.5c0,0.2-0.2,0.5-0.4,0.5h-1.6
		C102.5,83.3,102.3,83.1,102.3,82.8z"/>
	<path fill="#ED1C24" d="M123.6,111.7h1.9c0.2,0,0.4-0.2,0.4-0.4V105c0-0.2,0.2-0.4,0.4-0.4h2.7c0.2,0,0.4-0.2,0.4-0.4v-1.6
		c0-0.2-0.2-0.4-0.4-0.4h-2.7c-0.2,0-0.4-0.2-0.4-0.4v-4.3c0-0.2,0.2-0.4,0.4-0.4h3.6c0.2,0,0.4-0.2,0.4-0.4V95
		c0-0.2-0.2-0.4-0.4-0.4h-6.3c-0.2,0-0.4,0.2-0.4,0.4v16.3C123.2,111.5,123.4,111.7,123.6,111.7z"/>
	<g>
		<path fill="#ED1C24" d="M175.3,177l-66.8-70.1c-0.9-1-0.9-2.5,0-3.5L129.8,81c0.8-0.9,0.9-2.3,0.1-3.2c-0.9-1-2.4-0.9-3.3,0
			l-21.1,22.1c-1,1.1-2.7,1.1-3.7,0l-21-22c-0.8-0.9-2.3-1.1-3.2-0.3c-1,0.9-1.1,2.4-0.2,3.3v0l21.4,22.4c0.9,1,0.9,2.5,0,3.5
			l-67.1,70.4c-0.4,0.4-0.6,1-0.6,1.6c0,0.6,0.3,1.2,0.7,1.6c12.7,11.8,28.3,20.6,45.7,25c-0.8-0.7-0.9-2-0.3-2.9l1-1.6
			c-15.6-4.1-29.8-11.8-41.5-22.2L82,131.2l-1.5-2.8l0,0l0,0l0,0c-0.6-1.1-0.2-2.6,1-3.1c1.1-0.5,2.4,0,3,1.1l0.7,1.3l16.5-17.4
			c1-1.1,2.7-1.1,3.7,0l16.8,17.6l0.4-1.3c0.4-1.2,1.7-1.9,2.9-1.5c1.2,0.4,1.7,1.7,1.4,2.9l-1.1,3.6l44.5,46.7
			c-11.4,10.2-25.2,17.9-40.3,22.1l0.8,1.4c0.6,1.1,0.4,2.5-0.7,3.2c-1.1,0.7-2.6,0.3-3.2-0.8l-1.5-2.6c-7.1,1.6-14.5,2.4-22.1,2.4
			c-7.1,0-14-0.7-20.6-2.1l-1.7,3c-0.3,0.5-0.8,0.9-1.3,1c7.6,1.8,15.5,2.7,23.7,2.7c27.8,0,53-10.8,71.8-28.4
			c0.6-0.6,0.9-1.4,0.6-2.2C175.8,177.6,175.6,177.3,175.3,177z"/>
		<path fill="#ED1C24" d="M130.3,205.1c-0.2,0.1-0.4,0.2-0.6,0.3c-1,0.3-2.1-0.1-2.6-1.1l-1.5-2.6l-18.6-32.5
			c-1.1-1.9-3.8-1.9-4.9,0L82.9,202l-1.7,3c-0.3,0.5-0.8,0.9-1.3,1c0,0-0.1,0-0.1,0c-0.7-0.2-1.4-0.3-2-0.5c0,0,0,0-0.1-0.1
			c-0.8-0.7-0.9-2-0.3-2.9l1-1.6l28.8-49.3c0.7-1.1,2.1-1.5,3.2-0.8c1,0.7,1.3,2.1,0.6,3.2l-2.9,5c-0.5,0.9-0.5,1.9,0,2.8l22.2,38.7
			l0.8,1.4C131.5,203,131.3,204.4,130.3,205.1z"/>
		<path fill="#ED1C24" d="M87.6,140c0.6,0.2,1.3,0.1,1.8-0.3l6.8-4.2c0.8-0.5,2-0.3,2.5,0.5l4.1,6c0.3,0.4,0.6,0.7,1,0.9
			c1,0.4,2.1,0.1,2.7-0.8l4.3-6c0.6-0.8,1.7-1,2.6-0.5l6.8,4.7c0.6,0.4,1.4,0.5,2,0.3c0.7-0.2,1.2-0.8,1.4-1.5l2.2-7.4l1.1-3.6
			c0.4-1.2-0.2-2.5-1.4-2.9c-1.2-0.4-2.6,0.2-2.9,1.5l-0.4,1.3l-1.3,4.5c-0.4,1.2-1.8,1.7-2.8,1l-5.5-3.8c-1-0.7-2.4-0.5-3.1,0.6
			l-3.2,4.5c-0.8,1.1-2.3,1-3.1,0l-3-4.4c-0.7-1-2-1.3-3.1-0.7l-6.4,4c-0.9,0.6-2.1,0.2-2.6-0.7l-2.8-5.2l-0.7-1.3
			c-0.6-1.1-1.9-1.6-3-1.1c-1.2,0.6-1.6,2-1,3.1l1.5,2.8l4.2,7.7C86.5,139.5,87,139.9,87.6,140z"/>
	</g>
</g>
</svg>
